<svg xmlns="http://www.w3.org/2000/svg" xml:space="preserve" style="fill-rule:evenodd;clip-rule:evenodd;stroke-linejoin:round;stroke-miterlimit:2" viewBox="140.05 177.91 1539.02 2706.54">
    <path style="fill:none" d="M193.858 143.544h1743.88v2986.35H193.858z" transform="translate(-193.858 -143.544)"/>
    <path d="M236.047 186.858c-2.953 5.56-6.512 10.889-8.743 16.725-6.431 16.823-12.254 33.877-18.459 50.788-3.21 8.747-4.522 17.395-3.119 26.887 1.253 8.478.17 17.288.295 25.949.278 19.429 2.468 38.64 5.806 57.799 5.067 29.085 13.061 57.364 21.962 85.441 8.985 28.34 17.845 56.72 26.815 85.259-10.035 4.136-20.908 6.26-32.256 6.353-7.099.058-14.19.749-21.291.914-17.926.416-35.856.749-53.785 1.016-25.756.383-51.513.723-77.271.95-2.908.025-5.933-.445-8.715-1.298-6.785-2.082-8.805-5.932-6.306-12.488 7.88-20.676 16.018-41.254 23.952-61.91 11.503-29.949 23.498-59.729 34.12-89.99 5.302-15.104 8.72-30.987 11.61-46.77 1.425-7.782-.221-16.141-.606-24.232-.203-4.266-.746-8.514-1.025-12.778-.71-10.825-1.263-21.661-2.086-32.477-.267-3.508 1.27-5.031 4.372-5.998 13.335-4.155 26.838-7.298 40.914-6.971 7.423.172 14.838.744 22.26.818 1.133.011 2.879-1.475 3.335-2.657 6.797-17.606 13.403-35.286 20.105-52.93 2.243-5.908 4.628-11.763 6.982-17.988.034-.347-.06-.283.23-.367.427-.626.564-1.167 1.031-1.845 2.649-3.055 4.969-5.974 6.326-7.682l3.547 19.482M117.348 421.157c-.559 1.197-1.207 2.362-1.664 3.597a100951.384 100951.384 0 0 0-35.926 97.204c-.377 1.021-.546 2.119-1.099 4.323 13.895 1.257 27.253 3.283 40.641 3.51 29.948.506 59.912.225 89.868.016 7.803-.054 15.632-.743 23.387-1.658 6.461-.762 9.138-4.082 8.556-10.545-.383-4.244-1.575-8.471-2.838-12.572-7.238-23.481-14.593-46.926-21.949-70.371-.624-1.988-1.545-3.884-2.329-6.617-10.73-40.682-17.557-81.98-19.358-124.115a547.167 547.167 0 0 0-8.604 29.946c-4.646 18.1-9.244 36.214-13.625 54.379-3.01 12.48-5.621 25.056-9.262 37.762-6.077-1.028-12.154-2.056-18.13-3.864.27-.59.628-1.156.798-1.774 6.813-24.73 13.229-49.577 20.51-74.168 7.607-25.693 16.043-51.142 24.157-76.823-.192-.105-.574-.472-.993-.52-11.365-1.295-22.802-3.943-34.082-3.394-9.322.453-12.278.452-12.561 14.187-.339 16.468-1.264 32.973-3.003 49.348-1.547 14.566-3.678 29.191-7.142 43.402-3.988 16.363-9.724 32.3-15.352 48.747Z" style="fill:#fff;fill-rule:nonzero" transform="translate(-193 -143) scale(5.55556)"/>
    <path d="M236.348 187.03c-1.523-6.884-2.745-13.596-3.848-19.654-1.357 1.708-3.677 4.627-6.666 7.78-.774.767-.877 1.299-.981 1.831 0 0 .094-.064.065-.112-4.756.353-9.546 1.437-14.199 1.015-9.873-.895-15.42-9.344-16.597-16.299-1.526-9.02 2.551-15.998 9.472-21.407 2.658-2.077 5.694-3.669 8.506-5.448-4.152-.837-8.414-1.361-12.464-2.586-7.47-2.257-12.739-9.355-12.614-16.325.144-8.012 5.305-14.536 12.817-17.307 7.453-2.748 14.347-.396 22.524 1.883-6.304-7.836-8.937-15.651-5.757-24.472 2.268-6.291 6.531-11.168 12.619-13.796 13.353-5.763 20.494-.248 28.627 20.497 2.439-5.084 4.496-11.816 8.462-17.119 7.876-10.533 22.168-9.226 31.924-2.631 8.941 6.046 13.334 14.695 9.509 25.321-1.686 4.682-5.924 8.446-9.436 13.064-.537.806-.641 1.174-.745 1.542l1.507-.725c3.371-.563 6.734-1.195 10.117-1.674 7.638-1.081 20.26 1.672 24.909 10.09 3.842 6.957 3.743 13.915.224 20.473-3.662 6.823-9.616 11.084-17.881 11.032-3.487-.021-6.974-.003-9.873-.003 3.789 4.766 8.367 9.344 11.54 14.746 7.926 13.491-3.218 30.449-16.686 32.281-10.527 1.431-17.196-1.809-22.464-11.307-.916-1.652-1.728-3.363-2.694-5.254-1.014 10.74-2.341 21.175-14.052 25.466-10.279 3.766-21.814-3.564-25.865-10.902m-5.033-45.08c9.028 12.969 29.374 18.004 43.284 10.712 10.701-5.608 16.912-16.899 15.338-27.88-1.9-13.245-10.193-22.515-22.011-24.602-15.363-2.714-32.838 8.094-37.912 23.658-1.905 5.843-1.964 11.768 1.301 18.112Z" style="fill:#fff;fill-rule:nonzero" transform="translate(-193 -143) scale(5.55556)"/>
    <path d="M213.996 428.838c.783 1.939 1.704 3.835 2.328 5.823 7.356 23.445 14.711 46.89 21.949 70.371 1.263 4.101 2.455 8.328 2.838 12.572.582 6.463-2.095 9.783-8.556 10.545-7.755.915-15.584 1.604-23.387 1.658-29.956.209-59.92.49-89.868-.016-13.388-.227-26.746-2.253-40.641-3.51.553-2.204.722-3.302 1.099-4.323 11.959-32.408 23.934-64.809 35.926-97.204.457-1.235 1.105-2.4 2.451-3.686 9.452.562 18.116 1.213 26.78 1.864 6.077 1.028 12.154 2.056 19.084 3.067 17.131 2.7 33.516 3.59 49.997 2.839Z" style="fill:#bababa;fill-rule:nonzero" transform="translate(-193 -143) scale(5.55556)"/>
    <path d="M225.143 176.903c-.186-.448-.083-.98.361-1.611.203.444.066.985-.361 1.611Z" style="fill-rule:nonzero" transform="translate(-193 -143) scale(5.55556)"/>
</svg>