<svg id="visual" viewBox="0 0 960 540" width="960" height="540" xmlns="http://www.w3.org/2000/svg"
     version="1.1">
    <g stroke-width="1" stroke-linejoin="bevel">
        <path d="M495.3 253L519.3 216L441.7 261Z" fill="#ffb703" stroke="#ffb703"></path>
        <path d="M519.3 216L398.7 184L441.7 261Z" fill="#00a7ba" stroke="#00a7ba"></path>
        <path d="M504.3 84L402.7 106L398.7 184Z" fill="#00afb3" stroke="#00afb3"></path>
        <path d="M519.3 216L504.3 84L398.7 184Z" fill="#00bc91" stroke="#00bc91"></path>
        <path d="M646 232L597 172L519.3 216Z" fill="#00bc91" stroke="#00bc91"></path>
        <path d="M519.3 216L597 172L504.3 84Z" fill="#219ebc" stroke="#219ebc"></path>
        <path d="M344 91L312 214L398.7 184Z" fill="#00bc91" stroke="#00bc91"></path>
        <path d="M398.7 184L312 214L441.7 261Z" fill="#b2c429" stroke="#b2c429"></path>
        <path d="M388.7 0L344 91L402.7 106Z" fill="#3ac17a" stroke="#3ac17a"></path>
        <path d="M402.7 106L344 91L398.7 184Z" fill="#d8bf0a" stroke="#d8bf0a"></path>
        <path d="M340 349L384.7 374L441.7 261Z" fill="#d8bf0a" stroke="#d8bf0a"></path>
        <path d="M441.7 261L546.3 370L495.3 253Z" fill="#ffb703" stroke="#ffb703"></path>
        <path d="M495.3 253L646 232L519.3 216Z" fill="#00bc91" stroke="#00bc91"></path>
        <path d="M384.7 374L546.3 370L441.7 261Z" fill="#00b6a5" stroke="#00b6a5"></path>
        <path d="M546.3 370L646 232L495.3 253Z" fill="#d8bf0a" stroke="#d8bf0a"></path>
        <path d="M312 214L340 349L441.7 261Z" fill="#8cc545" stroke="#8cc545"></path>
        <path d="M251.3 297L280 278L174.3 149Z" fill="#66c460" stroke="#66c460"></path>
        <path d="M312 214L280 278L340 349Z" fill="#00bc91" stroke="#00bc91"></path>
        <path d="M504.3 84L388.7 0L402.7 106Z" fill="#00b6a5" stroke="#00b6a5"></path>
        <path d="M652 73L549.3 0L504.3 84Z" fill="#3ac17a" stroke="#3ac17a"></path>
        <path d="M504.3 84L549.3 0L388.7 0Z" fill="#d8bf0a" stroke="#d8bf0a"></path>
        <path d="M652 73L504.3 84L597 172Z" fill="#00bc91" stroke="#00bc91"></path>
        <path d="M222.3 318L251.3 297L174.3 149Z" fill="#219ebc" stroke="#219ebc"></path>
        <path d="M280 278L251.3 297L340 349Z" fill="#d8bf0a" stroke="#d8bf0a"></path>
        <path d="M757.7 152L652 73L597 172Z" fill="#8cc545" stroke="#8cc545"></path>
        <path d="M384.7 374L527.3 431L546.3 370Z" fill="#00bc91" stroke="#00bc91"></path>
        <path d="M546.3 370L667 343L646 232Z" fill="#8cc545" stroke="#8cc545"></path>
        <path d="M621 436L667 343L546.3 370Z" fill="#b2c429" stroke="#b2c429"></path>
        <path d="M757.7 152L714.7 60L652 73Z" fill="#8cc545" stroke="#8cc545"></path>
        <path d="M652 73L618 0L549.3 0Z" fill="#00afb3" stroke="#00afb3"></path>
        <path d="M388.7 0L299 0L344 91Z" fill="#ffb703" stroke="#ffb703"></path>
        <path d="M344 91L212.3 65L312 214Z" fill="#00b6a5" stroke="#00b6a5"></path>
        <path d="M316 451L395.7 459L384.7 374Z" fill="#b2c429" stroke="#b2c429"></path>
        <path d="M384.7 374L395.7 459L527.3 431Z" fill="#ffb703" stroke="#ffb703"></path>
        <path d="M316 451L384.7 374L340 349Z" fill="#b2c429" stroke="#b2c429"></path>
        <path d="M174.3 149L280 278L312 214Z" fill="#d8bf0a" stroke="#d8bf0a"></path>
        <path d="M251.3 297L222.3 318L340 349Z" fill="#b2c429" stroke="#b2c429"></path>
        <path d="M527.3 431L621 436L546.3 370Z" fill="#8cc545" stroke="#8cc545"></path>
        <path d="M554.3 540L621 436L527.3 431Z" fill="#00b6a5" stroke="#00b6a5"></path>
        <path d="M299 0L212.3 65L344 91Z" fill="#ffb703" stroke="#ffb703"></path>
        <path d="M222.3 318L316 451L340 349Z" fill="#219ebc" stroke="#219ebc"></path>
        <path d="M299 0L255.3 0L212.3 65Z" fill="#66c460" stroke="#66c460"></path>
        <path d="M212.3 65L174.3 149L312 214Z" fill="#8cc545" stroke="#8cc545"></path>
        <path d="M757.7 152L597 172L646 232Z" fill="#00b6a5" stroke="#00b6a5"></path>
        <path d="M652 73L714.7 60L618 0Z" fill="#ffb703" stroke="#ffb703"></path>
        <path d="M766.7 299L757.7 152L646 232Z" fill="#66c460" stroke="#66c460"></path>
        <path d="M759.7 337L766.7 299L667 343Z" fill="#00a7ba" stroke="#00a7ba"></path>
        <path d="M667 343L766.7 299L646 232Z" fill="#00b6a5" stroke="#00b6a5"></path>
        <path d="M64.7 0L148.7 110L212.3 65Z" fill="#00afb3" stroke="#00afb3"></path>
        <path d="M212.3 65L148.7 110L174.3 149Z" fill="#00a7ba" stroke="#00a7ba"></path>
        <path d="M174.3 149L91.7 241L222.3 318Z" fill="#00afb3" stroke="#00afb3"></path>
        <path d="M745.7 468L759.7 337L667 343Z" fill="#8cc545" stroke="#8cc545"></path>
        <path d="M278 540L453.7 540L395.7 459Z" fill="#00bc91" stroke="#00bc91"></path>
        <path d="M395.7 459L453.7 540L527.3 431Z" fill="#00bc91" stroke="#00bc91"></path>
        <path d="M453.7 540L554.3 540L527.3 431Z" fill="#219ebc" stroke="#219ebc"></path>
        <path d="M621 436L745.7 468L667 343Z" fill="#b2c429" stroke="#b2c429"></path>
        <path d="M862.3 160L808.3 106L757.7 152Z" fill="#00b6a5" stroke="#00b6a5"></path>
        <path d="M757.7 152L808.3 106L714.7 60Z" fill="#3ac17a" stroke="#3ac17a"></path>
        <path d="M714.7 60L775.7 0L618 0Z" fill="#00b6a5" stroke="#00b6a5"></path>
        <path d="M862.3 160L757.7 152L874.3 247Z" fill="#3ac17a" stroke="#3ac17a"></path>
        <path d="M148.7 110L95.7 181L174.3 149Z" fill="#219ebc" stroke="#219ebc"></path>
        <path d="M235.3 540L278 540L316 451Z" fill="#b2c429" stroke="#b2c429"></path>
        <path d="M95.7 181L91.7 241L174.3 149Z" fill="#00bc91" stroke="#00bc91"></path>
        <path d="M808.3 106L775.7 0L714.7 60Z" fill="#00afb3" stroke="#00afb3"></path>
        <path d="M179.3 487L316 451L222.3 318Z" fill="#ffb703" stroke="#ffb703"></path>
        <path d="M316 451L278 540L395.7 459Z" fill="#00a7ba" stroke="#00a7ba"></path>
        <path d="M91.7 241L96.7 330L222.3 318Z" fill="#00a7ba" stroke="#00a7ba"></path>
        <path d="M554.3 540L650 540L621 436Z" fill="#8cc545" stroke="#8cc545"></path>
        <path d="M650 540L745.7 468L621 436Z" fill="#b2c429" stroke="#b2c429"></path>
        <path d="M874.3 247L757.7 152L766.7 299Z" fill="#219ebc" stroke="#219ebc"></path>
        <path d="M96.7 330L179.3 487L222.3 318Z" fill="#00a7ba" stroke="#00a7ba"></path>
        <path d="M874.3 247L766.7 299L890.3 346Z" fill="#00afb3" stroke="#00afb3"></path>
        <path d="M808.3 106L820.3 0L775.7 0Z" fill="#00a7ba" stroke="#00a7ba"></path>
        <path d="M179.3 487L235.3 540L316 451Z" fill="#00afb3" stroke="#00afb3"></path>
        <path d="M960 0L820.3 0L808.3 106Z" fill="#3ac17a" stroke="#3ac17a"></path>
        <path d="M890.3 346L766.7 299L759.7 337Z" fill="#ffb703" stroke="#ffb703"></path>
        <path d="M0 101L0 163L95.7 181Z" fill="#219ebc" stroke="#219ebc"></path>
        <path d="M95.7 181L0 163L91.7 241Z" fill="#d8bf0a" stroke="#d8bf0a"></path>
        <path d="M91.7 241L0 252L96.7 330Z" fill="#219ebc" stroke="#219ebc"></path>
        <path d="M255.3 0L64.7 0L212.3 65Z" fill="#00bc91" stroke="#00bc91"></path>
        <path d="M0 428L101.7 479L96.7 330Z" fill="#ffb703" stroke="#ffb703"></path>
        <path d="M96.7 330L101.7 479L179.3 487Z" fill="#00a7ba" stroke="#00a7ba"></path>
        <path d="M179.3 487L94.7 540L235.3 540Z" fill="#b2c429" stroke="#b2c429"></path>
        <path d="M745.7 468L890.3 346L759.7 337Z" fill="#00b6a5" stroke="#00b6a5"></path>
        <path d="M874.3 247L960 153L862.3 160Z" fill="#66c460" stroke="#66c460"></path>
        <path d="M650 540L769.7 540L745.7 468Z" fill="#b2c429" stroke="#b2c429"></path>
        <path d="M745.7 468L876.3 493L890.3 346Z" fill="#b2c429" stroke="#b2c429"></path>
        <path d="M0 101L95.7 181L148.7 110Z" fill="#00b6a5" stroke="#00b6a5"></path>
        <path d="M0 163L0 252L91.7 241Z" fill="#00bc91" stroke="#00bc91"></path>
        <path d="M64.7 0L0 101L148.7 110Z" fill="#00b6a5" stroke="#00b6a5"></path>
        <path d="M0 252L0 357L96.7 330Z" fill="#ffb703" stroke="#ffb703"></path>
        <path d="M0 540L94.7 540L101.7 479Z" fill="#d8bf0a" stroke="#d8bf0a"></path>
        <path d="M101.7 479L94.7 540L179.3 487Z" fill="#d8bf0a" stroke="#d8bf0a"></path>
        <path d="M769.7 540L829.3 540L745.7 468Z" fill="#d8bf0a" stroke="#d8bf0a"></path>
        <path d="M960 259L874.3 247L890.3 346Z" fill="#d8bf0a" stroke="#d8bf0a"></path>
        <path d="M960 259L960 153L874.3 247Z" fill="#219ebc" stroke="#219ebc"></path>
        <path d="M862.3 160L960 130L808.3 106Z" fill="#219ebc" stroke="#219ebc"></path>
        <path d="M960 361L960 259L890.3 346Z" fill="#219ebc" stroke="#219ebc"></path>
        <path d="M64.7 0L0 0L0 101Z" fill="#d8bf0a" stroke="#d8bf0a"></path>
        <path d="M960 153L960 130L862.3 160Z" fill="#8cc545" stroke="#8cc545"></path>
        <path d="M829.3 540L876.3 493L745.7 468Z" fill="#3ac17a" stroke="#3ac17a"></path>
        <path d="M0 357L0 428L96.7 330Z" fill="#b2c429" stroke="#b2c429"></path>
        <path d="M960 437L960 361L890.3 346Z" fill="#66c460" stroke="#66c460"></path>
        <path d="M960 130L960 0L808.3 106Z" fill="#00bc91" stroke="#00bc91"></path>
        <path d="M960 540L960 437L876.3 493Z" fill="#00a7ba" stroke="#00a7ba"></path>
        <path d="M876.3 493L960 437L890.3 346Z" fill="#219ebc" stroke="#219ebc"></path>
        <path d="M0 428L0 540L101.7 479Z" fill="#66c460" stroke="#66c460"></path>
        <path d="M829.3 540L960 540L876.3 493Z" fill="#ffb703" stroke="#ffb703"></path>
    </g>
</svg>